<?xml version="1.0" encoding="UTF-8" standalone="no"?>
<svg width="309px" height="74px" viewBox="0 0 309 74" version="1.1" xmlns="http://www.w3.org/2000/svg" xmlns:xlink="http://www.w3.org/1999/xlink" xmlns:sketch="http://www.bohemiancoding.com/sketch/ns">
    <!-- Generator: Sketch 3.1 (8751) - http://www.bohemiancoding.com/sketch -->
    <title>logo</title>
    <desc>Created with Sketch.</desc>
    <defs></defs>
    <g id="Page-1" stroke="none" stroke-width="1" fill="none" fill-rule="evenodd" sketch:type="MSPage">
        <g id="logo" sketch:type="MSLayerGroup">
            <path d="M77.9453125,47.765625 C78.1640636,46.8593705 78.5859344,46.0468786 79.2109375,45.328125 C79.8359406,44.6093714 80.5859331,43.9843777 81.4609375,43.453125 C82.3359419,42.9218723 83.2968698,42.4726581 84.34375,42.1054688 C85.3906302,41.7382794 86.4453072,41.4375012 87.5078125,41.203125 C88.5703178,40.9687488 89.5976513,40.8007818 90.5898437,40.6992188 C91.5820362,40.5976557 92.4687461,40.546875 93.25,40.546875 C93.25,39.2968688 93.1406261,38.2812539 92.921875,37.5 C92.7031239,36.7187461 92.3789084,36.105471 91.9492187,35.6601562 C91.5195291,35.2148415 90.9960968,34.9101571 90.3789062,34.7460938 C89.7617157,34.5820304 89.0546915,34.5 88.2578125,34.5 C87.2421824,34.5 86.3007856,34.5820304 85.4335937,34.7460938 C84.5664019,34.9101571 83.7929721,35.1015614 83.1132812,35.3203125 C82.4335904,35.5390636 81.871096,35.7617176 81.4257812,35.9882812 C80.9804665,36.2148449 80.6718759,36.3906244 80.5,36.515625 L78.90625,32.90625 C79.1562512,32.703124 79.6015593,32.4375016 80.2421875,32.109375 C80.8828157,31.7812484 81.7070262,31.4609391 82.7148437,31.1484375 C83.7226613,30.8359359 84.902337,30.5703136 86.2539062,30.3515625 C87.6054755,30.1328114 89.1093667,30.0234375 90.765625,30.0234375 C92.3437579,30.0234375 93.7929621,30.1679673 95.1132812,30.4570312 C96.4336004,30.7460952 97.5703077,31.2539026 98.5234375,31.9804688 C99.4765673,32.7070349 100.218747,33.6914 100.75,34.9335938 C101.281253,36.1757875 101.546875,37.7499905 101.546875,39.65625 L101.546875,53.8125 L104.617187,53.8125 L104.617187,56.3203125 C104.210935,56.6015639 103.753909,56.8281241 103.246094,57 C102.738279,57.1718759 102.21094,57.304687 101.664062,57.3984375 C101.117185,57.492188 100.574221,57.5585936 100.035156,57.5976562 C99.4960911,57.6367189 99.0000023,57.65625 98.546875,57.65625 C98.2499985,57.65625 97.8671898,57.6250003 97.3984375,57.5625 C96.9296852,57.4999997 96.4726585,57.3710947 96.0273437,57.1757812 C95.582029,56.9804678 95.1953141,56.707033 94.8671875,56.3554688 C94.5390609,56.0039045 94.3593752,55.5468778 94.328125,54.984375 C93.5156209,55.7500038 92.554693,56.3867162 91.4453125,56.8945312 C90.335932,57.4023463 89.0312575,57.65625 87.53125,57.65625 C85.4843648,57.65625 83.7773506,57.378909 82.4101562,56.8242188 C81.0429619,56.2695285 79.9765663,55.5351608 79.2109375,54.6210938 C78.4453087,53.7070267 77.9648447,52.6523497 77.7695312,51.4570312 C77.5742178,50.2617128 77.6328109,49.0312563 77.9453125,47.765625 L77.9453125,47.765625 Z M86.0546875,49.1484375 C86.0546875,50.6640701 86.4843707,51.7578091 87.34375,52.4296875 C88.2031293,53.1015659 89.4609292,53.3203137 91.1171875,53.0859375 C91.5390646,53.0234372 91.9218733,52.9101571 92.265625,52.7460938 C92.6093767,52.5820304 92.929686,52.3906261 93.2265625,52.171875 C93.2265625,50.8281183 93.2304687,49.4882879 93.2382812,48.1523438 C93.2460938,46.8163996 93.25,45.4765692 93.25,44.1328125 C92.7656226,44.1328125 92.2500027,44.160156 91.703125,44.2148438 C91.1562473,44.2695315 90.6171902,44.3671868 90.0859375,44.5078125 C89.5546848,44.6484382 89.0468774,44.8437487 88.5625,45.09375 C88.0781226,45.3437512 87.6484394,45.6523419 87.2734375,46.0195312 C86.8984356,46.3867206 86.6015636,46.8281224 86.3828125,47.34375 C86.1640614,47.8593776 86.0546875,48.4609341 86.0546875,49.1484375 L86.0546875,49.1484375 Z M106.375,53.8125 L109.140625,53.2265625 L109.140625,24.5625 L105.976562,23.2265625 L105.976562,19.9453125 L116.078125,18.796875 L117.4375,19.21875 L117.4375,53.109375 L121.539062,53.8125 L121.539062,57 L106.375,57 L106.375,53.8125 Z M123.671875,44.3203125 C123.671875,42.226552 124.074215,40.3046962 124.878906,38.5546875 C125.683598,36.8046788 126.777337,35.2968813 128.160156,34.03125 C129.542976,32.7656187 131.160147,31.7812535 133.011719,31.078125 C134.863291,30.3749965 136.835927,30.0234375 138.929688,30.0234375 C139.289064,30.0234375 139.699216,30.0312499 140.160156,30.046875 C140.621096,30.0625001 141.148435,30.117187 141.742188,30.2109375 L141.742188,24.5625 L136.5625,23.2265625 L136.5625,19.9453125 L148.515625,18.796875 L150.039062,19.4296875 L150.039062,53.8125 L153.367188,53.8125 L153.367188,56.3203125 C152.835935,56.617189 151.980475,56.914061 150.800781,57.2109375 C149.621088,57.507814 148.101572,57.65625 146.242188,57.65625 C145.226557,57.65625 144.402347,57.5117202 143.769531,57.2226562 C143.136716,56.9335923 142.664064,56.5156277 142.351562,55.96875 C142.039061,56.1875011 141.660158,56.3984365 141.214844,56.6015625 C140.769529,56.8046885 140.242191,56.9843742 139.632812,57.140625 C139.023434,57.2968758 138.320316,57.4218745 137.523438,57.515625 C136.726559,57.6093755 135.82813,57.65625 134.828125,57.65625 C134.015621,57.65625 133.175786,57.5468761 132.308594,57.328125 C131.441402,57.1093739 130.593754,56.7695336 129.765625,56.3085938 C128.937496,55.8476539 128.152347,55.2617223 127.410156,54.5507812 C126.667965,53.8398402 126.019534,52.9921924 125.464844,52.0078125 C124.910153,51.0234326 124.472658,49.8945376 124.152344,48.6210938 C123.83203,47.3476499 123.671875,45.9140705 123.671875,44.3203125 L123.671875,44.3203125 Z M136.890625,53.5546875 C137.406253,53.7578135 137.953122,53.859375 138.53125,53.859375 C139.234379,53.859375 139.855466,53.8164067 140.394531,53.7304688 C140.933596,53.6445308 141.382811,53.5390631 141.742188,53.4140625 L141.742188,34.03125 C141.179685,33.6718732 140.585941,33.445313 139.960938,33.3515625 C139.335934,33.257812 138.750003,33.2109375 138.203125,33.2109375 C137.953124,33.2109375 137.640627,33.2539058 137.265625,33.3398438 C136.890623,33.4257817 136.488283,33.5859363 136.058594,33.8203125 C135.628904,34.0546887 135.195315,34.3867166 134.757812,34.8164062 C134.32031,35.2460959 133.925783,35.8085903 133.574219,36.5039062 C133.222654,37.1992222 132.929689,38.0390576 132.695312,39.0234375 C132.460936,40.0078174 132.335938,41.1796807 132.320312,42.5390625 C132.289062,44.1171954 132.382811,45.5312438 132.601562,46.78125 C132.820314,48.0312562 133.136717,49.1132767 133.550781,50.0273438 C133.964846,50.9414108 134.460935,51.6953095 135.039062,52.2890625 C135.61719,52.8828155 136.234372,53.3046863 136.890625,53.5546875 L136.890625,53.5546875 Z M156.085938,44.5546875 C156.085938,42.5546775 156.414059,40.6718838 157.070312,38.90625 C157.726566,37.1406162 158.671869,35.6015691 159.90625,34.2890625 C161.140631,32.9765559 162.648429,31.9375038 164.429688,31.171875 C166.210946,30.4062462 168.226551,30.0234375 170.476562,30.0234375 C172.367197,30.0234375 173.992181,30.2656226 175.351562,30.75 C176.710944,31.2343774 177.828121,31.9101519 178.703125,32.7773438 C179.578129,33.6445356 180.234373,34.6796815 180.671875,35.8828125 C181.109377,37.0859435 181.351562,38.3984304 181.398438,39.8203125 C181.429688,40.8046924 181.40625,41.6796837 181.328125,42.4453125 C181.25,43.2109413 181.164063,43.9218717 181.070312,44.578125 L164.734375,44.578125 C164.953126,47.3437638 165.667963,49.4296805 166.878906,50.8359375 C168.08985,52.2421945 169.851551,52.9453125 172.164062,52.9453125 C173.304693,52.9453125 174.519525,52.82422 175.808594,52.5820312 C177.097663,52.3398425 178.374994,51.9375028 179.640625,51.375 L180.882812,54.3046875 C180.28906,54.80469 179.566411,55.2656229 178.714844,55.6875 C177.863277,56.1093771 176.937505,56.4687485 175.9375,56.765625 C174.937495,57.0625015 173.878912,57.2929679 172.761719,57.4570312 C171.644526,57.6210946 170.515631,57.6875002 169.375,57.65625 C167.249989,57.6093748 165.363289,57.2890655 163.714844,56.6953125 C162.066398,56.1015595 160.675787,55.2460993 159.542969,54.1289062 C158.410151,53.0117132 157.550784,51.6523518 156.964844,50.0507812 C156.378903,48.4492107 156.085938,46.6171978 156.085938,44.5546875 L156.085938,44.5546875 Z M173.335938,40.8046875 C173.382813,40.2265596 173.429687,39.6054721 173.476562,38.9414062 C173.523438,38.2773404 173.519532,37.6289094 173.464844,36.9960938 C173.410156,36.3632781 173.273439,35.7734402 173.054688,35.2265625 C172.835936,34.6796848 172.49219,34.2421891 172.023438,33.9140625 C171.742186,33.7109365 171.414064,33.5585943 171.039062,33.4570312 C170.664061,33.3554682 170.226565,33.3046875 169.726562,33.3046875 C168.820308,33.3046875 168.062503,33.5273415 167.453125,33.9726562 C166.843747,34.417971 166.347658,34.9960902 165.964844,35.7070312 C165.582029,36.4179723 165.300782,37.2187455 165.121094,38.109375 C164.941405,39.0000045 164.820313,39.898433 164.757812,40.8046875 L173.335938,40.8046875 Z M185.054688,53.8125 L187.820312,53.2265625 L187.820312,24.5625 L184.65625,23.2265625 L184.65625,19.9453125 L194.757812,18.796875 L196.117188,19.21875 L196.117188,53.109375 L200.21875,53.8125 L200.21875,57 L185.054688,57 L185.054688,53.8125 Z M202.585937,47.765625 C202.804689,46.8593705 203.226559,46.0468786 203.851562,45.328125 C204.476566,44.6093714 205.226558,43.9843777 206.101562,43.453125 C206.976567,42.9218723 207.937495,42.4726581 208.984375,42.1054688 C210.031255,41.7382794 211.085932,41.4375012 212.148438,41.203125 C213.210943,40.9687488 214.238276,40.8007818 215.230469,40.6992188 C216.222661,40.5976557 217.109371,40.546875 217.890625,40.546875 C217.890625,39.2968688 217.781251,38.2812539 217.5625,37.5 C217.343749,36.7187461 217.019533,36.105471 216.589844,35.6601562 C216.160154,35.2148415 215.636722,34.9101571 215.019531,34.7460938 C214.402341,34.5820304 213.695316,34.5 212.898438,34.5 C211.882807,34.5 210.941411,34.5820304 210.074219,34.7460938 C209.207027,34.9101571 208.433597,35.1015614 207.753906,35.3203125 C207.074215,35.5390636 206.511721,35.7617176 206.066406,35.9882812 C205.621092,36.2148449 205.312501,36.3906244 205.140625,36.515625 L203.546875,32.90625 C203.796876,32.703124 204.242184,32.4375016 204.882812,32.109375 C205.523441,31.7812484 206.347651,31.4609391 207.355469,31.1484375 C208.363286,30.8359359 209.542962,30.5703136 210.894531,30.3515625 C212.246101,30.1328114 213.749992,30.0234375 215.40625,30.0234375 C216.984383,30.0234375 218.433587,30.1679673 219.753906,30.4570312 C221.074225,30.7460952 222.210933,31.2539026 223.164062,31.9804688 C224.117192,32.7070349 224.859372,33.6914 225.390625,34.9335938 C225.921878,36.1757875 226.1875,37.7499905 226.1875,39.65625 L226.1875,53.8125 L229.257812,53.8125 L229.257812,56.3203125 C228.85156,56.6015639 228.394534,56.8281241 227.886719,57 C227.378904,57.1718759 226.851565,57.304687 226.304688,57.3984375 C225.75781,57.492188 225.214846,57.5585936 224.675781,57.5976562 C224.136716,57.6367189 223.640627,57.65625 223.1875,57.65625 C222.890624,57.65625 222.507815,57.6250003 222.039062,57.5625 C221.57031,57.4999997 221.113283,57.3710947 220.667969,57.1757812 C220.222654,56.9804678 219.835939,56.707033 219.507812,56.3554688 C219.179686,56.0039045 219,55.5468778 218.96875,54.984375 C218.156246,55.7500038 217.195318,56.3867162 216.085938,56.8945312 C214.976557,57.4023463 213.671882,57.65625 212.171875,57.65625 C210.12499,57.65625 208.417976,57.378909 207.050781,56.8242188 C205.683587,56.2695285 204.617191,55.5351608 203.851562,54.6210938 C203.085934,53.7070267 202.60547,52.6523497 202.410156,51.4570312 C202.214843,50.2617128 202.273436,49.0312563 202.585937,47.765625 L202.585937,47.765625 Z M210.695312,49.1484375 C210.695312,50.6640701 211.124996,51.7578091 211.984375,52.4296875 C212.843754,53.1015659 214.101554,53.3203137 215.757812,53.0859375 C216.17969,53.0234372 216.562498,52.9101571 216.90625,52.7460938 C217.250002,52.5820304 217.570311,52.3906261 217.867188,52.171875 C217.867188,50.8281183 217.871094,49.4882879 217.878906,48.1523438 C217.886719,46.8163996 217.890625,45.4765692 217.890625,44.1328125 C217.406248,44.1328125 216.890628,44.160156 216.34375,44.2148438 C215.796872,44.2695315 215.257815,44.3671868 214.726562,44.5078125 C214.19531,44.6484382 213.687502,44.8437487 213.203125,45.09375 C212.718748,45.3437512 212.289064,45.6523419 211.914062,46.0195312 C211.539061,46.3867206 211.242189,46.8281224 211.023438,47.34375 C210.804686,47.8593776 210.695312,48.4609341 210.695312,49.1484375 L210.695312,49.1484375 Z M231.671875,53.8125 L234.578125,53.2265625 L234.578125,37.8046875 L231.390625,35.5546875 L231.390625,32.6015625 L240.109375,30.0234375 L241.84375,30.46875 L241.84375,33.9375 C242.328127,33.4218724 242.894528,32.9335961 243.542969,32.4726562 C244.191409,32.0117164 244.886715,31.6015643 245.628906,31.2421875 C246.371097,30.8828107 247.148433,30.5898449 247.960938,30.3632812 C248.773442,30.1367176 249.585933,30.0000002 250.398438,29.953125 C251.242192,29.9062498 252.070308,29.929687 252.882812,30.0234375 C253.695317,30.117188 254.449215,30.3046861 255.144531,30.5859375 C255.839847,30.8671889 256.464841,31.2617162 257.019531,31.7695312 C257.574222,32.2773463 258.023436,32.9140587 258.367188,33.6796875 C258.851565,33.2265602 259.390622,32.7812522 259.984375,32.34375 C260.578128,31.9062478 261.230465,31.5156267 261.941406,31.171875 C262.652347,30.8281233 263.429683,30.5507823 264.273438,30.3398438 C265.117192,30.1289052 266.039058,30.0234375 267.039062,30.0234375 C268.585945,30.0234375 269.914057,30.273435 271.023438,30.7734375 C272.132818,31.27344 273.042965,31.9999952 273.753906,32.953125 C274.464847,33.9062548 274.98828,35.0742118 275.324219,36.4570312 C275.660158,37.8398507 275.828125,39.4218661 275.828125,41.203125 L275.828125,53.1796875 L279.109375,53.8125 L279.109375,57 L264.789062,57 L264.789062,53.8125 L267.53125,53.15625 L267.53125,42.2578125 C267.53125,40.757805 267.441407,39.554692 267.261719,38.6484375 C267.08203,37.742183 266.796877,37.0429712 266.40625,36.5507812 C266.015623,36.0585913 265.511722,35.7343758 264.894531,35.578125 C264.277341,35.4218742 263.539067,35.34375 262.679688,35.34375 C262.13281,35.34375 261.546878,35.4648425 260.921875,35.7070312 C260.296872,35.94922 259.750002,36.2265609 259.28125,36.5390625 C259.359375,36.9296895 259.417969,37.4179658 259.457031,38.0039062 C259.496094,38.5898467 259.515625,39.4218696 259.515625,40.5 L259.515625,53.1796875 L262.84375,53.8125 L262.84375,57 L247.890625,57 L247.890625,53.8125 L251.21875,53.1328125 L251.21875,42.09375 C251.21875,40.5937425 251.101564,39.3867233 250.867188,38.4726562 C250.632811,37.5585892 250.292971,36.8593774 249.847656,36.375 C249.402342,35.8906226 248.84766,35.5898443 248.183594,35.4726562 C247.519528,35.3554682 246.757817,35.3281247 245.898438,35.390625 C245.710937,35.4062501 245.468751,35.4492184 245.171875,35.5195312 C244.874999,35.5898441 244.578126,35.679687 244.28125,35.7890625 C243.984374,35.898438 243.707033,36.0195306 243.449219,36.1523438 C243.191405,36.2851569 243.000001,36.4218743 242.875,36.5625 L242.875,53.15625 L245.945312,53.8125 L245.945312,57 L231.671875,57 L231.671875,53.8125 Z M282.132812,47.765625 C282.351564,46.8593705 282.773434,46.0468786 283.398438,45.328125 C284.023441,44.6093714 284.773433,43.9843777 285.648438,43.453125 C286.523442,42.9218723 287.48437,42.4726581 288.53125,42.1054688 C289.57813,41.7382794 290.632807,41.4375012 291.695312,41.203125 C292.757818,40.9687488 293.785151,40.8007818 294.777344,40.6992188 C295.769536,40.5976557 296.656246,40.546875 297.4375,40.546875 C297.4375,39.2968688 297.328126,38.2812539 297.109375,37.5 C296.890624,36.7187461 296.566408,36.105471 296.136719,35.6601562 C295.707029,35.2148415 295.183597,34.9101571 294.566406,34.7460938 C293.949216,34.5820304 293.242191,34.5 292.445312,34.5 C291.429682,34.5 290.488286,34.5820304 289.621094,34.7460938 C288.753902,34.9101571 287.980472,35.1015614 287.300781,35.3203125 C286.62109,35.5390636 286.058596,35.7617176 285.613281,35.9882812 C285.167967,36.2148449 284.859376,36.3906244 284.6875,36.515625 L283.09375,32.90625 C283.343751,32.703124 283.789059,32.4375016 284.429688,32.109375 C285.070316,31.7812484 285.894526,31.4609391 286.902344,31.1484375 C287.910161,30.8359359 289.089837,30.5703136 290.441406,30.3515625 C291.792976,30.1328114 293.296867,30.0234375 294.953125,30.0234375 C296.531258,30.0234375 297.980462,30.1679673 299.300781,30.4570312 C300.6211,30.7460952 301.757808,31.2539026 302.710938,31.9804688 C303.664067,32.7070349 304.406247,33.6914 304.9375,34.9335938 C305.468753,36.1757875 305.734375,37.7499905 305.734375,39.65625 L305.734375,53.8125 L308.804688,53.8125 L308.804688,56.3203125 C308.398435,56.6015639 307.941409,56.8281241 307.433594,57 C306.925779,57.1718759 306.39844,57.304687 305.851562,57.3984375 C305.304685,57.492188 304.761721,57.5585936 304.222656,57.5976562 C303.683591,57.6367189 303.187502,57.65625 302.734375,57.65625 C302.437499,57.65625 302.05469,57.6250003 301.585938,57.5625 C301.117185,57.4999997 300.660158,57.3710947 300.214844,57.1757812 C299.769529,56.9804678 299.382814,56.707033 299.054688,56.3554688 C298.726561,56.0039045 298.546875,55.5468778 298.515625,54.984375 C297.703121,55.7500038 296.742193,56.3867162 295.632812,56.8945312 C294.523432,57.4023463 293.218758,57.65625 291.71875,57.65625 C289.671865,57.65625 287.964851,57.378909 286.597656,56.8242188 C285.230462,56.2695285 284.164066,55.5351608 283.398438,54.6210938 C282.632809,53.7070267 282.152345,52.6523497 281.957031,51.4570312 C281.761718,50.2617128 281.820311,49.0312563 282.132812,47.765625 L282.132812,47.765625 Z M290.242188,49.1484375 C290.242188,50.6640701 290.671871,51.7578091 291.53125,52.4296875 C292.390629,53.1015659 293.648429,53.3203137 295.304688,53.0859375 C295.726565,53.0234372 296.109373,52.9101571 296.453125,52.7460938 C296.796877,52.5820304 297.117186,52.3906261 297.414062,52.171875 C297.414062,50.8281183 297.417969,49.4882879 297.425781,48.1523438 C297.433594,46.8163996 297.4375,45.4765692 297.4375,44.1328125 C296.953123,44.1328125 296.437503,44.160156 295.890625,44.2148438 C295.343747,44.2695315 294.80469,44.3671868 294.273438,44.5078125 C293.742185,44.6484382 293.234377,44.8437487 292.75,45.09375 C292.265623,45.3437512 291.835939,45.6523419 291.460938,46.0195312 C291.085936,46.3867206 290.789064,46.8281224 290.570312,47.34375 C290.351561,47.8593776 290.242188,48.4609341 290.242188,49.1484375 L290.242188,49.1484375 Z" id="aldelama" fill="#4E4E4E" sketch:type="MSShapeGroup"></path>
            <circle id="circle" fill="#4E4E4E" sketch:type="MSShapeGroup" cx="37" cy="37" r="37"></circle>
            <path d="M21.482673,23.134096 L18.3713449,22.6331194 L18.3713449,18.3089007 L35.9582589,18.3089007 L35.9582589,22.5540179 L31.6604074,23.2131975 L37.3557199,43.0940569 L39.0432199,50.1868304 L40.6516183,43.25226 L46.0305246,23.2395647 L41.9699777,22.6331194 L41.9699777,18.3352679 L57.0520089,18.3352679 L57.0520089,22.6331194 L53.8615792,23.134096 L41.9436105,59.6526507 L34.7190011,59.6526507 L21.482673,23.134096 Z" id="V" fill="#F9F9F9" sketch:type="MSShapeGroup"></path>
        </g>
    </g>
</svg>
