<?xml version="1.0" encoding="UTF-8" standalone="no"?>
<svg width="36px" height="36px" viewBox="0 0 36 36" version="1.1" xmlns="http://www.w3.org/2000/svg" xmlns:xlink="http://www.w3.org/1999/xlink" xmlns:sketch="http://www.bohemiancoding.com/sketch/ns">
    <!-- Generator: Sketch 3.1.1 (8761) - http://www.bohemiancoding.com/sketch -->
    <title>fake-logo</title>
    <desc>Created with Sketch.</desc>
    <defs></defs>
    <g id="Page-1" stroke="none" stroke-width="1" fill="none" fill-rule="evenodd" sketch:type="MSPage">
        <g id="fake-logo" sketch:type="MSLayerGroup" fill="#4990E2">
            <path d="M33.1645183,9.42393892 L33.0093459,9.15517241 L33.0093459,26.8448276 L33.1645183,26.5760611 L17.8448276,35.4208887 L18.1551724,35.4208887 L2.83548165,26.5760611 L2.99065406,26.8448276 L2.99065406,9.15517241 L2.83548165,9.42393892 L18.1551724,0.579111332 L17.8448276,0.579111332 L33.1645183,9.42393892 Z M18,-0.0480105119 L17.8448276,0.041578323 L2.52513682,8.88640591 L2.36996441,8.97599474 L2.36996441,9.15517241 L2.36996441,26.8448276 L2.36996441,27.0240053 L2.52513682,27.1135941 L17.8448276,35.9584217 L18,36.0480105 L18.1551724,35.9584217 L33.4748632,27.1135941 L33.6300356,27.0240053 L33.6300356,26.8448276 L33.6300356,9.15517241 L33.6300356,8.97599474 L33.4748632,8.88640591 L18.1551724,0.041578323 L18,-0.0480105119 Z" id="Polygon-1" sketch:type="MSShapeGroup"></path>
            <path d="M26.8448276,2.99065406 L26.5760611,2.83548165 L35.4208887,18.1551724 L35.4208887,17.8448276 L26.5760611,33.1645183 L26.8448276,33.0093459 L9.15517241,33.0093459 L9.42393892,33.1645183 L0.579111332,17.8448276 L0.579111332,18.1551724 L9.42393892,2.83548165 L9.15517241,2.99065406 L26.8448276,2.99065406 Z M8.97599474,2.36996441 L8.88640591,2.52513682 L0.041578323,17.8448276 L-0.0480105119,18 L0.041578323,18.1551724 L8.88640591,33.4748632 L8.97599474,33.6300356 L9.15517241,33.6300356 L26.8448276,33.6300356 L27.0240053,33.6300356 L27.1135941,33.4748632 L35.9584217,18.1551724 L36.0480105,18 L35.9584217,17.8448276 L27.1135941,2.52513682 L27.0240053,2.36996441 L26.8448276,2.36996441 L9.15517241,2.36996441 L8.97599474,2.36996441 Z" id="Polygon-2" sketch:type="MSShapeGroup"></path>
        </g>
    </g>
</svg>